<mxfile host="app.diagrams.net" modified="2023-04-30T09:41:01.967Z" agent="Mozilla/5.0 (Windows NT 10.0; Win64; x64) AppleWebKit/537.36 (KHTML, like Gecko) Chrome/112.0.0.0 Safari/537.36 Edg/112.0.1722.64" version="21.2.3" etag="g1f-e_l0CfBE_65n90ie" type="github">
  <diagram name="第 1 页" id="lLmv0Fx4TvR50ihw8FwF">
    <mxGraphModel>
      <root>
        <mxCell id="0" />
        <mxCell id="1" parent="0" />
      </root>
    </mxGraphModel>
  </diagram>
</mxfile>
